General
Complete name                  : C:\Users\Rost\Videos\Запись_2018_11_11_09_36_05_404.mp4
Format                         : MPEG-4
Format profile                 : Base Media
Codec ID                       : isom (isom/iso2/avc1/mp41)
File size                      : 280 MiB
Duration                       : 1 h 22 min
Overall bit rate               : 475 kb/s
Writing application            : Lavf57.25.100

Video
ID                             : 1
Format                         : AVC
Format/Info                    : Advanced Video Codec
Format profile                 : Baseline@L4
Format settings                : 1 Ref Frames
Format settings, CABAC         : No
Format settings, ReFrames      : 1 frame
Codec ID                       : avc1
Codec ID/Info                  : Advanced Video Coding
Duration                       : 1 h 22 min
Bit rate                       : 278 kb/s
Width                          : 1 920 pixels
Height                         : 1 080 pixels
Display aspect ratio           : 16:9
Frame rate mode                : Variable
Frame rate                     : 19.662 FPS
Minimum frame rate             : 2.143 FPS
Maximum frame rate             : 30.000 FPS
Color space                    : YUV
Chroma subsampling             : 4:2:0
Bit depth                      : 8 bits
Scan type                      : Progressive
Bits/(Pixel*Frame)             : 0.007
Stream size                    : 164 MiB (59%)

Audio
ID                             : 2
Format                         : AAC
Format/Info                    : Advanced Audio Codec
Format profile                 : LC
Codec ID                       : mp4a-40-2
Duration                       : 1 h 22 min
Bit rate mode                  : Constant
Bit rate                       : 192 kb/s
Channel(s)                     : 2 channels
Channel positions              : Front: L R
Sampling rate                  : 44.1 kHz
Frame rate                     : 43.066 FPS (1024 SPF)
Compression mode               : Lossy
Stream size                    : 113 MiB (40%)
Default                        : Yes
Alternate group                : 1

